#!OML:ASF H:\Pregnant\Project 1\Capture day 1\Session 1\femalepreg.ASF
:FULLY-SPECIFIED
:DEGREES
417
root 6.38502 15.138 18.2875 20.4199 -28.8548 -8.53863
lowerback -11.7564 0.943145 11.4209
upperback -2.65308 -0.356229 3.3288
thorax 3.74748 -0.117448 -2.95827
lowerneck -19.0461 3.25386 5.2053
upperneck 25.6785 3.58206 -2.5099
head 11.7069 1.76526 -1.25657
rclavicle 4.5472e-014 4.92986e-014
rhumerus -32.2149 2.03393 -82.7687
rradius 54.6046
rwrist -23.5309
rhand -20.2231 -11.2577
rfingers 7.12502
rthumb 6.12439 -41.1491
lclavicle 4.5472e-014 4.92986e-014
lhumerus -34.9492 -8.6839 84.7964
lradius 46.5207
lwrist 46.0147
lhand -27.2027 3.93301
lfingers 7.12502
lthumb -0.615835 33.9119
rfemur -26.332 16.8429 29.5841
rtibia 38.6405
rfoot -17.9324 -10.8498
rtoes -15.3913
lfemur -49.0706 -13.1399 -1.93217
ltibia 47.3731
lfoot -10.1414 15.0849
ltoes -19.8854
418
root 6.38713 15.1435 18.3474 20.6408 -29.3059 -8.59267
lowerback -11.8199 1.02624 11.4208
upperback -2.70087 -0.248475 3.24129
thorax 3.74536 -0.0661946 -3.03495
lowerneck -18.9102 3.51771 5.48792
upperneck 25.4983 3.89977 -2.60316
head 11.6348 1.92474 -1.28883
rclavicle 2.09221e-014 -2.06736e-014
rhumerus -32.0527 3.27824 -83.4552
rradius 55.7502
rwrist -23.7446
rhand -19.8477 -11.3251
rfingers 7.12502
rthumb 6.48684 -41.2057
lclavicle 2.09221e-014 -2.06736e-014
lhumerus -34.7865 -8.93457 84.9303
lradius 47.5684
lwrist 46.5959
lhand -26.9542 4.48691
lfingers 7.12502
lthumb -0.375807 34.4663
rfemur -26.2707 17.0478 29.3745
rtibia 38.4701
rfoot -18.0072 -10.6387
rtoes -15.4438
lfemur -49.2885 -13.7642 -1.05821
ltibia 45.7716
lfoot -9.88828 14.645
ltoes -20.1596
419
root 6.3895 15.1494 18.408 20.8733 -29.7469 -8.66516
lowerback -11.8931 1.09972 11.4322
upperback -2.7471 -0.156734 3.15763
thorax 3.74832 -0.0225018 -3.11615
lowerneck -18.7651 3.79606 5.77711
upperneck 25.3071 4.23348 -2.68486
head 11.5592 2.09369 -1.31562
rclavicle -2.85753e-014 6.04305e-014
rhumerus -31.8597 4.51009 -84.1151
rradius 56.845
rwrist -23.8379
rhand -19.4772 -11.2972
rfingers 7.12502
rthumb 6.84455 -41.1666
lclavicle -2.85753e-014 6.04305e-014
lhumerus -34.6292 -9.1814 85.066
lradius 48.6146
lwrist 47.1767
lhand -26.6771 5.02475
lfingers 7.12502
lthumb -0.108182 35.0045
rfemur -26.2012 17.2491 29.1782
rtibia 38.2817
rfoot -18.0849 -10.4308
rtoes -15.475
lfemur -49.5185 -14.4168 -0.138692
ltibia 44.2152
lfoot -9.66384 14.0583
ltoes -20.3351
420
root 6.39228 15.1546 18.4688 21.1196 -30.1768 -8.75366
lowerback -11.9763 1.16384 11.4535
upperback -2.79619 -0.0800877 3.07637
thorax 3.7519 0.0136849 -3.20242
lowerneck -18.6012 4.08736 6.079
upperneck 25.1062 4.58203 -2.76301
head 11.479 2.27122 -1.34134
rclavicle -2.55438e-014 -2.14687e-014
rhumerus -31.6526 5.72514 -84.744
rradius 57.8964
rwrist -23.7992
rhand -19.0899 -11.1454
rfingers 7.12502
rthumb 7.2184 -41.0023
lclavicle -2.55438e-014 -2.14687e-014
lhumerus -34.4812 -9.43305 85.2045
lradius 49.653
lwrist 47.7475
lhand -26.3981 5.49096
lfingers 7.12502
lthumb 0.161287 35.4706
rfemur -26.1393 17.4472 28.9937
rtibia 38.093
rfoot -18.1667 -10.2334
rtoes -15.5272
lfemur -49.7657 -15.0274 0.782891
ltibia 42.7324
lfoot -9.46501 13.3354
ltoes -20.4025
421
root 6.39539 15.1583 18.53 21.3658 -30.592 -8.85493
lowerback -12.0574 1.21401 11.4785
upperback -2.84748 -0.0222023 3.00183
thorax 3.74948 0.0402035 -3.28638
lowerneck -18.4282 4.39066 6.37067
upperneck 24.9103 4.9451 -2.81661
head 11.4007 2.45758 -1.35445
rclavicle -4.17448e-015 -2.38542e-015
rhumerus -31.4313 6.91638 -85.3394
rradius 58.8952
rwrist -23.6186
rhand -18.6602 -10.8337
rfingers 7.12502
rthumb 7.63317 -40.676
lclavicle -4.17448e-015 -2.38542e-015
lhumerus -34.3451 -9.6828 85.3513
lradius 50.6741
lwrist 48.2864
lhand -26.1295 5.84684
lfingers 7.12502
lthumb 0.420631 35.8262
rfemur -26.0713 17.637 28.8235
rtibia 37.9098
rfoot -18.2506 -10.0516
rtoes -15.634
lfemur -50.0084 -15.5629 1.66
ltibia 41.346
lfoot -9.2428 12.5304
ltoes -20.5899
